<?xml version="1.0" encoding="UTF-8" standalone="no"?>
<!-- Created with Inkscape (http://www.inkscape.org/) -->

<svg
   width="1200mm"
   height="210mm"
   viewBox="0 0 297 210"
   version="1.1"
   id="svg1"
   inkscape:version="1.3 (0e150ed6c4, 2023-07-21)"
   sodipodi:docname="logo.svg"
   xmlns:inkscape="http://www.inkscape.org/namespaces/inkscape"
   xmlns:sodipodi="http://sodipodi.sourceforge.net/DTD/sodipodi-0.dtd"
   xmlns="http://www.w3.org/2000/svg"
   xmlns:svg="http://www.w3.org/2000/svg">
  <sodipodi:namedview
     id="namedview1"
     pagecolor="#ffffff"
     bordercolor="#000000"
     borderopacity="0.25"
     inkscape:showpageshadow="2"
     inkscape:pageopacity="0.0"
     inkscape:pagecheckerboard="0"
     inkscape:deskcolor="#d1d1d1"
     inkscape:document-units="mm"
     inkscape:zoom="0.2102413"
     inkscape:cx="2656.4714"
     inkscape:cy="202.14867"
     inkscape:window-width="2240"
     inkscape:window-height="1294"
     inkscape:window-x="-11"
     inkscape:window-y="-11"
     inkscape:window-maximized="1"
     inkscape:current-layer="layer1" />
  <defs
     id="defs1" />
  <g
     inkscape:label="Layer 1"
     inkscape:groupmode="layer"
     id="layer1">
    <path
       d="m -433.12642,188.53143 q 11.03604,-13.95362 21.31098,-34.24979 l 40.71919,-79.78932 q -6.4694,-25.370214 -12.1777,-35.64515 -5.58145,-10.274936 -17.25175,-10.274936 -10.78234,0 -20.54987,10.655489 l -6.2157,-6.849957 q 17.50545,-19.154511 34.63034,-19.154511 11.924,0 18.52025,6.849957 6.59626,6.723107 11.03605,21.564682 4.43978,14.841574 12.55825,57.336682 10.52864,55.433914 16.36379,70.021784 5.962,14.46103 14.08047,14.46103 5.83515,0 10.78234,-4.05924 l 4.82034,7.61107 q -12.55826,9.76753 -22.57949,9.76753 -14.20732,0 -20.29617,-14.58787 -6.08885,-14.58788 -16.99804,-78.52081 h -0.76111 q -21.56468,43.76361 -42.2414,91.07906 h -25.75077 z"
       id="text1"
       style="font-size:259.791px;font-family:'Cambria Math';-inkscape-font-specification:'Cambria Math';fill:#5e5086;stroke:#5e5086;stroke-width:16.4466;stroke-linecap:round"
       aria-label="λ" />
    <path
       style="font-size:194.244px;font-family:'Segoe UI';-inkscape-font-specification:'Segoe UI';fill:#9e358f;stroke:#9e358f;stroke-width:12.2971;stroke-linecap:round"
       d="m -239.44519,139.99807 h -0.37938 v 58.70949 h -15.5547 V 56.913231 h 15.5547 v 17.072227 h 0.37938 q 11.47633,-19.348524 33.57538,-19.348524 18.77945,0 29.30732,13.088707 10.52787,12.993862 10.52787,34.903219 0,24.37535 -11.85571,39.07643 -11.85571,14.60624 -32.43723,14.60624 -18.8743,0 -29.11763,-16.31346 z m -0.37938,-39.17128 v 13.56294 q 0,12.0454 7.77734,20.48667 7.8722,8.34642 19.9176,8.34642 14.13201,0 22.09905,-10.81241 8.06189,-10.81241 8.06189,-30.06609 0,-16.218612 -7.49282,-25.418645 -7.49281,-9.200034 -20.29698,-9.200034 -13.56293,0 -21.81451,9.484571 -8.25157,9.389724 -8.25157,23.616578 z m 92.7591,49.69915 V 133.8331 q 12.70932,9.38972 27.97948,9.38972 20.48667,0 20.48667,-13.65778 0,-3.88867 -1.80207,-6.54435 -1.70722,-2.75053 -4.74228,-4.83713 -2.94022,-2.08661 -7.01859,-3.69899 -3.98352,-1.70722 -8.63095,-3.50929 -6.44951,-2.56083 -11.38149,-5.12167 -4.83713,-2.65568 -8.15673,-5.880429 -3.22475,-3.3196 -4.93198,-7.492811 -1.61237,-4.173211 -1.61237,-9.769107 0,-6.828891 3.1299,-12.045405 3.12991,-5.311359 8.34643,-8.82065 5.21651,-3.604137 11.85571,-5.406206 6.73405,-1.802068 13.84747,-1.802068 12.614482,0 22.573281,4.362902 v 15.744387 q -10.717565,-7.018582 -24.659881,-7.018582 -4.36291,0 -7.8722,1.043303 -3.50929,0.948457 -6.07012,2.750525 -2.46599,1.802069 -3.88868,4.362903 -1.32784,2.465988 -1.32784,5.501051 0,3.793828 1.32784,6.354662 1.42269,2.560834 4.07837,4.552594 2.65568,1.99176 6.44951,3.604137 3.79383,1.612377 8.63096,3.509291 6.44951,2.465983 11.571173,5.121663 5.121668,2.56084 8.725805,5.88044 3.604137,3.22475 5.501051,7.49281 1.99176,4.26806 1.99176,10.14849 0,7.20827 -3.224754,12.51963 -3.129909,5.31136 -8.441268,8.82065 -5.311359,3.50929 -12.235097,5.21652 -6.92374,1.70722 -14.51139,1.70722 -14.98562,0 -25.98772,-5.78559 z M 19.293888,109.36291 h -68.573445 q 0.379383,16.21861 8.725805,25.03926 8.346422,8.82065 22.95266,8.82065 16.4083074,0 30.160935,-10.81241 v 14.60624 q -12.8041706,9.29488 -33.859917,9.29488 -20.581518,0 -32.342385,-13.18355 -11.760868,-13.2784 -11.760868,-37.27437 0,-22.668119 12.80417,-36.894975 12.899016,-14.321701 31.963003,-14.321701 19.0639865,0 29.4970141,12.329942 Q 19.293888,79.296817 19.293888,101.20618 Z M 3.3598092,96.179353 q -0.094846,-13.46809 -6.5443536,-20.960901 -6.3546623,-7.492811 -17.7361466,-7.492811 -11.002102,0 -18.684604,7.872194 -7.682502,7.872193 -9.484571,20.581518 z M 58.749693,139.99807 h -0.379382 v 58.70949 H 42.815615 V 56.913231 h 15.554696 v 17.072227 h 0.379382 q 11.476331,-19.348524 33.57538,-19.348524 18.779447,0 29.307327,13.088707 10.52787,12.993862 10.52787,34.903219 0,24.37535 -11.85571,39.07643 -11.85572,14.60624 -32.437235,14.60624 -18.874295,0 -29.117632,-16.31346 z m -0.379382,-39.17128 v 13.56294 q 0,12.0454 7.777347,20.48667 7.872194,8.34642 19.917598,8.34642 14.132014,0 22.099054,-10.81241 8.06188,-10.81241 8.06188,-30.06609 0,-16.218612 -7.49281,-25.418645 -7.49281,-9.200034 -20.296981,-9.200034 -13.562936,0 -21.814512,9.484571 -8.251576,9.389724 -8.251576,23.616578 z m 179.258399,53.20844 h -15.5547 V 98.076267 q 0,-30.350626 -22.57327,-30.350626 -11.38149,0 -19.15884,8.820651 -7.77735,8.725805 -7.77735,22.478432 V 154.03523 H 157.00986 V 10.249144 h 15.55469 v 62.787857 h 0.37939 q 11.19179,-18.400067 31.86815,-18.400067 32.81662,0 32.81662,39.550659 z m 69.90129,2.2763 q -21.52998,0 -34.42899,-13.56294 -12.80417,-13.65778 -12.80417,-36.13621 0,-24.470192 13.37324,-38.222819 13.37325,-13.752627 36.13622,-13.752627 21.71966,0 33.85991,13.373244 12.2351,13.373245 12.2351,37.084672 0,23.2372 -13.18355,37.27436 -13.08871,13.94232 -35.18776,13.94232 z m 1.13815,-88.585889 q -14.98562,0 -23.71143,10.243336 -8.7258,10.148491 -8.7258,28.074333 0,17.26191 8.82065,27.22071 8.82065,9.9588 23.61658,9.9588 15.08046,0 23.14235,-9.76911 8.15673,-9.7691 8.15673,-27.78979 0,-18.210372 -8.15673,-28.074325 -8.06189,-9.863954 -23.14235,-9.863954 z m 87.6374,86.309589 H 380.75086 V 10.249144 h 15.55469 z m 72.08273,2.2763 q -21.52998,0 -34.429,-13.56294 -12.80417,-13.65778 -12.80417,-36.13621 0,-24.470192 13.37325,-38.222819 13.37324,-13.752627 36.13621,-13.752627 21.71967,0 33.85992,13.373244 12.23509,13.373245 12.23509,37.084672 0,23.2372 -13.18355,37.27436 -13.08871,13.94232 -35.18775,13.94232 z m 1.13814,-88.585889 q -14.98562,0 -23.71142,10.243336 -8.72581,10.148491 -8.72581,28.074333 0,17.26191 8.82065,27.22071 8.82065,9.9588 23.61658,9.9588 15.08047,0 23.14236,-9.76911 8.15673,-9.7691 8.15673,-27.78979 0,-18.210372 -8.15673,-28.074325 -8.06189,-9.863954 -23.14236,-9.863954 z m 154.97792,78.532239 q 0,53.49298 -51.21668,53.49298 -18.02068,0 -31.48877,-6.82889 v -15.55469 q 16.4083,9.10518 31.29908,9.10518 35.85167,0 35.85167,-38.12797 v -10.62272 h -0.37938 q -11.09695,18.58976 -33.38569,18.58976 -18.11553,0 -29.21247,-12.89902 -11.00211,-12.99386 -11.00211,-34.80837 0,-24.754729 11.85572,-39.360967 11.95056,-14.606239 32.62692,-14.606239 19.63306,0 29.11763,15.744387 h 0.37938 v -13.46809 h 15.5547 z m -15.5547,-36.13621 v -14.3217 q 0,-11.571176 -7.87219,-19.822752 -7.77735,-8.251577 -19.44337,-8.251577 -14.41655,0 -22.57328,10.527873 -8.15673,10.433028 -8.15673,29.307326 0,16.21861 7.77735,25.98772 7.87219,9.67426 20.77121,9.67426 13.08871,0 21.24544,-9.29488 8.25157,-9.29488 8.25157,-23.80627 z M 733.29235,56.913231 688.62003,169.58993 q -11.95056,30.16093 -33.57538,30.16093 -6.07013,0 -10.14849,-1.23299 v -13.94232 q 5.02682,1.70722 9.20003,1.70722 11.76087,0 17.6413,-14.03716 l 7.77735,-18.40007 -37.93828,-96.932309 h 17.26192 l 26.27226,74.738419 q 0.47423,1.42268 1.99176,7.39796 h 0.56907 q 0.47423,-2.2763 1.89691,-7.20827 l 27.6001,-74.928109 z"
       id="text2"
       aria-label="psephology" />
  </g>
</svg>
